<svg width="193" height="213" viewBox="0 0 193 213" fill="none" xmlns="http://www.w3.org/2000/svg">
<path d="M120.789 78.7754V106.347H115.521V94.5822H103.143V106.347H97.8365V78.7754H103.143V89.9215H115.521V78.7754H120.789ZM78.0338 83.3581V90.3088H85.1082C85.6984 90.3088 86.2362 90.1667 86.7216 89.8825C87.2098 89.5984 87.5932 89.1972 87.8745 88.679C88.1834 88.1609 88.3379 87.5396 88.3379 86.8153C88.3379 86.1161 88.1972 85.5088 87.9131 84.9906C87.6594 84.4724 87.2981 84.0713 86.8375 83.7871C86.4017 83.5002 85.9025 83.3581 85.3399 83.3581H78.0338ZM89.3749 98.2317C89.3749 97.5324 89.2342 96.9112 88.9529 96.3679C88.6688 95.7969 88.2855 95.3567 87.7973 95.0475C87.3394 94.7104 86.7989 94.5432 86.1838 94.5432H78.0338V101.803H85.9135C86.5562 101.803 87.1326 101.65 87.6456 101.338C88.1834 101.001 88.6081 100.561 88.9143 100.017C89.2204 99.4742 89.3749 98.8808 89.3749 98.2317ZM94.72 99.2429C94.72 100.795 94.32 102.101 93.5285 103.165C92.7314 104.199 91.6558 104.99 90.2961 105.533C88.9639 106.077 87.5049 106.347 85.9135 106.347H72.7274V78.7754H87.3395C88.6192 78.7754 89.7224 79.1264 90.6436 79.8257C91.5923 80.497 92.3094 81.3802 92.7976 82.4666C93.3106 83.528 93.5671 84.6396 93.5671 85.8068C93.5671 87.1245 93.2334 88.381 92.5659 89.5733C91.9012 90.7628 90.9277 91.6432 89.6452 92.2115C91.2062 92.6795 92.4391 93.5208 93.3354 94.7382C94.2594 95.9529 94.72 97.4572 94.72 99.2429ZM69.9859 83.4751H61.2594V106.347H55.9916V83.4751H47.2651V78.7754H69.9859V83.4751Z" fill="black"/>
<path d="M113.842 58.2208L107.8 54.0897L126.586 26.2588L132.628 30.3899L113.842 58.2208ZM35.3266 151.192L29.3192 147.008L48.1057 119.702L54.113 123.886L35.3266 151.192ZM45.5168 66.0031L18.3809 47.0991L22.5414 41.0542L49.6773 59.9582L45.5168 66.0031ZM168.332 143.599L127.889 120.026L131.55 113.665L171.993 137.236L168.332 143.599ZM92.1079 171.993L85.7703 139.574L92.9375 138.157L99.2751 170.574L92.1079 171.993Z" fill="#979DAC"/>
<path d="M98.6863 174.579C96.0966 174.579 93.4765 175.242 91.0762 176.636C83.7857 180.877 81.2775 190.301 85.4877 197.645C87.5277 201.202 90.8197 203.747 94.7591 204.811C98.6985 205.874 102.813 205.33 106.345 203.275C113.638 199.035 116.144 189.61 111.936 182.265C109.11 177.338 103.967 174.579 98.6863 174.579ZM98.7473 212.694C96.7888 212.694 94.8161 212.436 92.8718 211.911C87.0492 210.34 82.1835 206.577 79.1684 201.319C72.9468 190.465 76.652 176.538 87.4279 170.271C98.2058 164.007 112.033 167.737 118.255 178.59C124.475 189.444 120.769 203.374 109.993 209.638C106.518 211.66 102.658 212.694 98.7473 212.694ZM136.674 7.34933C131.356 7.34933 127.032 11.7048 127.032 17.061C127.032 22.4151 131.356 26.7726 136.674 26.7726C141.989 26.7726 146.315 22.4151 146.315 17.061C146.315 11.7048 141.989 7.34933 136.674 7.34933ZM136.674 34.1219C127.333 34.1219 119.735 26.467 119.735 17.061C119.735 7.65282 127.333 0 136.674 0C146.014 0 153.612 7.65282 153.612 17.061C153.612 26.467 146.014 34.1219 136.674 34.1219Z" fill="#0353A4"/>
<path d="M177.209 139.116C174.218 140.814 173.061 145.025 174.685 148.313C175.476 149.913 176.774 151.056 178.344 151.528C179.747 151.952 181.234 151.777 182.532 151.04C185.525 149.342 186.68 145.131 185.056 141.845C184.267 140.243 182.967 139.102 181.397 138.628C179.996 138.206 178.507 138.379 177.207 139.116H177.209ZM179.888 158.864C178.664 158.864 177.436 158.684 176.231 158.319C172.777 157.277 169.851 154.762 168.199 151.419C164.927 144.794 167.352 136.516 173.605 132.964C176.658 131.23 180.175 130.83 183.51 131.837C186.964 132.879 189.892 135.394 191.542 138.737C194.816 145.362 192.389 153.642 186.136 157.194C184.188 158.3 182.049 158.864 179.888 158.864Z" fill="#011F3E"/>
<path d="M22.3196 151.468C17.6853 151.468 13.9168 155.079 13.9168 159.521C13.9168 163.96 17.6853 167.573 22.3196 167.573C26.9517 167.573 30.7223 163.96 30.7223 159.521C30.7223 155.079 26.9517 151.468 22.3196 151.468ZM22.3196 174.619C13.6317 174.619 6.56445 167.846 6.56445 159.521C6.56445 151.195 13.6317 144.422 22.3196 144.422C31.0054 144.422 38.0747 151.195 38.0747 159.521C38.0747 167.846 31.0054 174.619 22.3196 174.619Z" fill="#0353A4"/>
<path d="M13.1293 32.4477C9.86504 32.4477 7.20822 34.9723 7.20822 38.0746C7.20822 41.1769 9.86504 43.7014 13.1293 43.7014C16.3955 43.7014 19.0503 41.1769 19.0503 38.0746C19.0503 34.9723 16.3955 32.4477 13.1293 32.4477ZM13.1293 51.2038C5.89087 51.2038 0 45.3132 0 38.0746C0 30.8338 5.89087 24.9453 13.1293 24.9453C20.3696 24.9453 26.2585 30.8338 26.2585 38.0746C26.2585 45.3132 20.3696 51.2038 13.1293 51.2038Z" fill="#011F3E"/>
<circle cx="84.0273" cy="93.2172" r="49.017" stroke="#979DAC" stroke-width="7"/>
</svg>
