<svg width="130" height="69" viewBox="0 0 130 69" fill="none" xmlns="http://www.w3.org/2000/svg">
<path fill-rule="evenodd" clip-rule="evenodd" d="M51.466 22.7846C53.9775 18.8514 58.19 16.0905 62.9218 16.0905C67.9216 16.0905 72.3054 18.77 74.7269 22.7846H77.4237C74.7832 17.415 69.2845 13.7192 62.9218 13.7192C56.5598 13.7192 51.0611 17.415 48.4206 22.7846H51.466ZM76.4035 34.9795C74.4067 40.183 69.391 43.8675 63.5278 43.8675C57.3517 43.8675 52.0588 40.3928 50.2804 34.9795H48.1328C50.2314 41.5129 56.3302 46.2388 63.5278 46.2388C70.7255 46.2388 76.8242 41.5129 78.9229 34.9795H76.4035Z" fill="black"/>
<path d="M79.6893 2.37121C77.9619 2.37121 76.5559 3.77714 76.5559 5.50461C76.5559 7.23273 77.9619 8.638 79.6893 8.638C81.4175 8.638 82.8227 7.23273 82.8227 5.50461C82.8227 3.77714 81.4175 2.37121 79.6893 2.37121ZM79.6893 11.0092C76.6545 11.0092 74.1847 8.54008 74.1847 5.50461C74.1847 2.46979 76.6545 0 79.6893 0C82.7248 0 85.1939 2.46979 85.1939 5.50461C85.1939 8.54008 82.7248 11.0092 79.6893 11.0092ZM92.6893 44.7931C91.7062 45.3601 91.3264 46.766 91.8603 47.8629C92.1197 48.3975 92.5471 48.7786 93.0631 48.9367C93.5236 49.0777 94.0132 49.0201 94.44 48.774C95.4231 48.207 95.8035 46.8004 95.2696 45.7034C95.0096 45.1695 94.5829 44.7878 94.0668 44.6297C93.6063 44.4887 93.1167 44.5463 92.6893 44.7931ZM93.5699 51.3854C93.1683 51.3854 92.7648 51.3252 92.3685 51.2041C91.2331 50.8561 90.2705 50.0165 89.728 48.9003C88.6522 46.6886 89.4494 43.9244 91.5044 42.7388H91.505C92.508 42.1599 93.6652 42.0269 94.7615 42.363C95.8968 42.711 96.8595 43.5506 97.402 44.6667C98.4778 46.8785 97.6805 49.642 95.6249 50.8276C94.9838 51.1975 94.2805 51.3854 93.5699 51.3854ZM42.7794 48.6099C41.2854 48.6099 40.0694 49.8259 40.0694 51.3199C40.0694 52.8144 41.2854 54.0298 42.7794 54.0298C44.2739 54.0298 45.4893 52.8144 45.4893 51.3199C45.4893 49.8259 44.2739 48.6099 42.7794 48.6099ZM42.7794 56.401C39.9774 56.401 37.6982 54.1218 37.6982 51.3199C37.6982 48.5179 39.9774 46.2387 42.7794 46.2387C45.5813 46.2387 47.8605 48.5179 47.8605 51.3199C47.8605 54.1218 45.5813 56.401 42.7794 56.401ZM39.861 10.5011C38.7872 10.5011 37.9132 11.299 37.9132 12.2795C37.9132 13.26 38.7872 14.0579 39.861 14.0579C40.9348 14.0579 41.8088 13.26 41.8088 12.2795C41.8088 11.299 40.9348 10.5011 39.861 10.5011ZM39.861 16.4291C37.4799 16.4291 35.542 14.568 35.542 12.2795C35.542 9.99165 37.4799 8.12988 39.861 8.12988C42.2428 8.12988 44.18 9.99165 44.18 12.2795C44.18 14.568 42.2428 16.4291 39.861 16.4291Z" fill="black"/>
<path d="M72.287 18.9586L70.3253 17.6262L76.4227 8.64941L78.3844 9.9819L72.287 18.9586ZM46.803 48.9462L44.8539 47.5965L50.9513 38.7891L52.9005 40.1388L46.803 48.9462ZM50.1111 21.4695L41.3037 15.372L42.6534 13.4223L51.4608 19.5197L50.1111 21.4695ZM89.9719 46.4969L76.8455 38.8937L78.0344 36.842L91.1608 44.4452L89.9719 46.4969ZM65.2322 55.6562L63.1753 45.1995L65.5022 44.7416L67.5591 55.1984L65.2322 55.6562ZM126.303 31.9189C126.583 31.9189 126.836 31.866 127.064 31.7615C127.299 31.6477 127.5 31.4995 127.666 31.3156C127.841 31.1323 127.972 30.9179 128.059 30.6731C128.155 30.4197 128.204 30.1577 128.204 29.8871C128.204 29.5113 128.125 29.166 127.968 28.8511C127.819 28.5275 127.61 28.2702 127.339 28.0776C127.076 27.8858 126.767 27.7892 126.408 27.7892C126.155 27.7892 125.91 27.8507 125.674 27.9731C125.447 28.0862 125.241 28.2437 125.058 28.4448C124.883 28.646 124.743 28.8729 124.638 29.1263V30.7651C124.691 30.9398 124.774 31.0972 124.887 31.2368C125.009 31.3771 125.149 31.4995 125.307 31.604C125.464 31.7006 125.626 31.7787 125.791 31.8402C125.967 31.8925 126.137 31.9189 126.303 31.9189ZM126.789 33.4135C126.264 33.4135 125.796 33.2951 125.385 33.0596C124.975 32.8234 124.652 32.4998 124.415 32.089V33.2819H122.882V23.7123H124.638V27.6191C124.883 27.2083 125.202 26.8847 125.595 26.6485C125.997 26.413 126.465 26.2952 126.998 26.2952C127.444 26.2952 127.85 26.3912 128.217 26.583C128.584 26.767 128.899 27.0243 129.161 27.3565C129.432 27.6893 129.637 28.069 129.777 28.4971C129.926 28.9258 130 29.3843 130 29.8739C130 30.3628 129.917 30.822 129.751 31.2501C129.594 31.6788 129.371 32.0585 129.082 32.3907C128.794 32.7142 128.453 32.9676 128.059 33.1509C127.675 33.3255 127.251 33.4135 126.789 33.4135ZM114.713 30.7128V26.413H116.469V30.3331C116.469 30.8571 116.565 31.2547 116.758 31.5259C116.95 31.7879 117.234 31.9189 117.609 31.9189C117.837 31.9189 118.06 31.8753 118.278 31.7879C118.505 31.6913 118.711 31.5518 118.894 31.3685C119.087 31.1846 119.248 30.953 119.379 30.6738V26.413H121.136V31.3156C121.136 31.4995 121.166 31.6305 121.228 31.7092C121.298 31.7879 121.407 31.8362 121.555 31.8534V33.2825C121.381 33.3083 121.232 33.3262 121.11 33.3348C120.996 33.352 120.891 33.3613 120.795 33.3613C120.481 33.3613 120.223 33.2911 120.022 33.1509C119.83 33.0027 119.716 32.8015 119.681 32.5481L119.642 31.9977C119.335 32.4608 118.942 32.8148 118.461 33.0596C117.981 33.2951 117.453 33.4135 116.876 33.4135C116.168 33.4135 115.63 33.1859 115.263 32.7321C114.896 32.2683 114.713 31.5954 114.713 30.7128ZM113.007 23.9743V33.2819H111.211V29.3102H106.99V33.2819H105.18V23.9743H106.99V27.7369H111.211V23.9743H113.007ZM99.6618 30.7651V29.1263C99.5738 28.8729 99.4342 28.646 99.2417 28.4448C99.0498 28.2437 98.8355 28.0862 98.5993 27.9731C98.3637 27.8507 98.1275 27.7892 97.892 27.7892C97.6207 27.7892 97.3759 27.8461 97.1576 27.9599C96.9393 28.0737 96.7468 28.2265 96.5807 28.4184C96.4232 28.6109 96.3015 28.8339 96.2135 29.0872C96.1354 29.3406 96.0957 29.6073 96.0957 29.8871C96.0957 30.1663 96.1394 30.433 96.2267 30.6864C96.3233 30.9312 96.4583 31.1455 96.6336 31.3288C96.8083 31.5121 97.0094 31.6569 97.2363 31.7615C97.4725 31.866 97.7259 31.9189 97.9965 31.9189C98.1626 31.9189 98.3287 31.8925 98.4947 31.8402C98.6694 31.7787 98.8315 31.7006 98.9797 31.604C99.1372 31.4995 99.2728 31.3771 99.3866 31.2368C99.5083 31.0886 99.6003 30.9312 99.6618 30.7651ZM94.2737 29.8474C94.2737 29.1832 94.4046 28.5844 94.6666 28.0518C94.9293 27.51 95.2919 27.0812 95.755 26.767C96.2181 26.452 96.7468 26.2952 97.3409 26.2952C97.8483 26.2952 98.3022 26.4216 98.7045 26.675C99.1153 26.9198 99.4342 27.2341 99.6618 27.6191V23.7123H101.418V31.3156C101.418 31.4995 101.449 31.6305 101.51 31.7092C101.571 31.7879 101.676 31.8356 101.825 31.8534V33.2819C101.519 33.3434 101.27 33.3738 101.077 33.3738C100.763 33.3738 100.501 33.2951 100.291 33.1383C100.09 32.9808 99.9761 32.7751 99.9503 32.5217L99.9238 32.089C99.6704 32.5177 99.3251 32.8452 98.8877 33.0721C98.4597 33.2997 98.0098 33.4135 97.538 33.4135C97.0657 33.4135 96.629 33.3216 96.2267 33.1383C95.8337 32.9544 95.4884 32.701 95.1913 32.3774C94.9028 32.0539 94.6759 31.6788 94.5098 31.2501C94.3524 30.8134 94.2737 30.3456 94.2737 29.8474ZM93.1655 33.2825H91.4089V29.428C91.4089 28.8775 91.3129 28.4753 91.1204 28.2219C90.9285 27.9685 90.6619 27.8421 90.3212 27.8421C90.085 27.8421 89.8448 27.903 89.6 28.0254C89.3638 28.1478 89.1501 28.3185 88.9576 28.5368C88.7651 28.7465 88.6255 28.9913 88.5381 29.2712V33.2825H86.7816V26.413H88.3674V27.6846C88.5421 27.3876 88.7651 27.1381 89.0363 26.9377C89.3069 26.7279 89.6172 26.5705 89.9672 26.4653C90.3252 26.3515 90.701 26.2952 91.0939 26.2952C91.5227 26.2952 91.872 26.3733 92.1433 26.5308C92.4225 26.6796 92.6329 26.8847 92.7725 27.1474C92.9213 27.4008 93.0212 27.6893 93.0742 28.0121C93.135 28.3357 93.1655 28.6632 93.1655 28.9953V33.2825ZM78.612 30.7128V26.413H80.3692V30.3331C80.3692 30.8571 80.4652 31.2547 80.657 31.5259C80.8496 31.7879 81.1334 31.9189 81.5092 31.9189C81.7368 31.9189 81.9597 31.8753 82.1781 31.7879C82.405 31.6913 82.6108 31.5518 82.794 31.3685C82.9866 31.1846 83.148 30.953 83.279 30.6738V26.413H85.0356V31.3156C85.0356 31.4995 85.0667 31.6305 85.1275 31.7092C85.1977 31.7879 85.3068 31.8362 85.455 31.8534V33.2825C85.2804 33.3083 85.1322 33.3262 85.0098 33.3348C84.896 33.352 84.7914 33.3613 84.6948 33.3613C84.3806 33.3613 84.1226 33.2911 83.9214 33.1509C83.7289 33.0027 83.6158 32.8015 83.5807 32.5481L83.5417 31.9977C83.2353 32.4608 82.8423 32.8148 82.3613 33.0596C81.881 33.2951 81.3524 33.4135 80.7755 33.4135C80.0675 33.4135 79.5296 33.1859 79.1631 32.7321C78.7959 32.2683 78.612 31.5954 78.612 30.7128ZM72.1044 29.8607C72.1044 30.2629 72.1831 30.6209 72.3399 30.9358C72.4974 31.2415 72.7117 31.4816 72.9823 31.6569C73.2536 31.8316 73.5593 31.9189 73.9 31.9189C74.2321 31.9189 74.5338 31.8316 74.8051 31.6569C75.0757 31.473 75.29 31.2282 75.4468 30.9226C75.6129 30.6076 75.6963 30.2497 75.6963 29.8474C75.6963 29.4544 75.6129 29.1005 75.4468 28.7856C75.29 28.4713 75.0757 28.2265 74.8051 28.0518C74.5338 27.8765 74.2321 27.7892 73.9 27.7892C73.5593 27.7892 73.2536 27.8811 72.9823 28.0651C72.7117 28.2397 72.4974 28.4845 72.3399 28.7988C72.1831 29.1045 72.1044 29.4591 72.1044 29.8607ZM73.9 33.4135C73.3409 33.4135 72.8381 33.3216 72.3928 33.1383C71.9469 32.9458 71.5665 32.6838 71.2522 32.3516C70.9466 32.0195 70.7104 31.6391 70.5443 31.211C70.3782 30.783 70.2955 30.3324 70.2955 29.8607C70.2955 29.3803 70.3782 28.9258 70.5443 28.4971C70.7104 28.069 70.9466 27.6893 71.2522 27.3571C71.5665 27.025 71.9469 26.767 72.3928 26.5837C72.8381 26.3912 73.3409 26.2952 73.9 26.2952C74.4597 26.2952 74.9579 26.3912 75.3946 26.5837C75.8405 26.767 76.2203 27.025 76.5352 27.3571C76.8495 27.6893 77.0857 28.069 77.2431 28.4971C77.4092 28.9258 77.4919 29.3803 77.4919 29.8607C77.4919 30.3324 77.4092 30.783 77.2431 31.211C77.0857 31.6391 76.8495 32.0195 76.5352 32.3516C76.2289 32.6838 75.8537 32.9458 75.4078 33.1383C74.9619 33.3216 74.4597 33.4135 73.9 33.4135ZM69.8377 27.9334C69.3044 27.9334 68.8287 28.0386 68.4086 28.2483C67.9898 28.4495 67.6881 28.7419 67.5042 29.1263V33.2819H65.7476V26.413H67.3606V27.8811C67.6048 27.4094 67.9151 27.0376 68.2909 26.767C68.6666 26.4957 69.0643 26.3475 69.4837 26.3211H69.7067C69.7596 26.3211 69.8033 26.3257 69.8377 26.3343V27.9334ZM60.7167 31.9189C60.9093 31.9189 61.0925 31.8885 61.2672 31.827C61.4419 31.7661 61.6039 31.6827 61.7521 31.5782C61.901 31.473 62.032 31.3506 62.1458 31.211C62.2589 31.0622 62.3463 30.914 62.4078 30.7651V29.1263C62.3026 28.8557 62.1544 28.6195 61.9619 28.419C61.7786 28.2179 61.5689 28.0651 61.3327 27.9599C61.1058 27.8461 60.8649 27.7898 60.6115 27.7898C60.3409 27.7898 60.0961 27.8461 59.8778 27.9599C59.6595 28.0737 59.4716 28.2351 59.3141 28.4448C59.1566 28.646 59.0342 28.8729 58.9469 29.1263C58.8682 29.3711 58.8292 29.6291 58.8292 29.9004C58.8292 30.1796 58.8768 30.4422 58.9734 30.6864C59.0693 30.9312 59.2003 31.1455 59.3664 31.3288C59.541 31.5127 59.7422 31.6569 59.9691 31.7615C60.2053 31.866 60.4547 31.9189 60.7167 31.9189ZM60.1266 33.3216C59.672 33.3216 59.2526 33.2342 58.8682 33.0596C58.4924 32.8756 58.1649 32.6222 57.885 32.2994C57.6144 31.9758 57.4047 31.604 57.2558 31.1846C57.1076 30.7651 57.0329 30.3192 57.0329 29.8474C57.0329 29.3492 57.1116 28.8861 57.2691 28.4581C57.4265 28.03 57.6449 27.6542 57.9247 27.3307C58.2132 26.9985 58.5493 26.7451 58.9337 26.5705C59.3273 26.3866 59.76 26.2952 60.2318 26.2952C60.765 26.2952 61.2321 26.417 61.6344 26.6618C62.036 26.898 62.3681 27.2169 62.6308 27.6191V26.413H64.1644V32.9544C64.1644 33.6358 63.9983 34.2174 63.6662 34.6984C63.3427 35.1873 62.8928 35.5591 62.3158 35.8125C61.7389 36.0745 61.0839 36.2055 60.3495 36.2055C59.6065 36.2055 58.9774 36.0785 58.462 35.8251C57.9466 35.581 57.5046 35.231 57.1381 34.7764L58.0948 33.8462C58.3568 34.1691 58.6849 34.4225 59.0779 34.6064C59.4802 34.7897 59.9036 34.8816 60.3495 34.8816C60.7253 34.8816 61.0661 34.8115 61.3724 34.6719C61.6866 34.5409 61.9361 34.3312 62.1193 34.0427C62.3119 33.7629 62.4078 33.4003 62.4078 32.9544V32.089C62.1809 32.4826 61.8573 32.7883 61.4379 33.0066C61.027 33.217 60.5897 33.3216 60.1266 33.3216ZM55.1552 33.2819L53.1499 30.3198L52.219 31.2375V33.2819H50.4624V23.7123H52.219V29.5067L54.9852 26.4262H56.8463L54.2905 29.336L57.0302 33.2819H55.1552ZM46.2612 33.4135C45.7021 33.4135 45.1993 33.3216 44.754 33.1383C44.3081 32.9458 43.9277 32.6838 43.6134 32.3516C43.2985 32.0109 43.0537 31.6265 42.879 31.1978C42.713 30.7697 42.6303 30.3198 42.6303 29.8474C42.6303 29.201 42.7745 28.6109 43.063 28.0776C43.36 27.5358 43.7795 27.1037 44.3213 26.7802C44.8632 26.4567 45.5056 26.2952 46.248 26.2952C46.9909 26.2952 47.6294 26.4567 48.162 26.7802C48.6953 27.1037 49.0929 27.5272 49.3549 28.0518L47.638 28.5758C47.4891 28.3224 47.2926 28.1306 47.0478 27.9996C46.803 27.8593 46.5324 27.7892 46.2354 27.7892C45.9033 27.7892 45.5969 27.8765 45.3177 28.0518C45.0465 28.2179 44.8321 28.4581 44.6753 28.7723C44.5178 29.0786 44.4391 29.4366 44.4391 29.8474C44.4391 30.2497 44.5178 30.6076 44.6753 30.9226C44.8414 31.2282 45.0597 31.473 45.3303 31.6569C45.6016 31.8316 45.9033 31.9189 46.2354 31.9189C46.4451 31.9189 46.6416 31.8839 46.8249 31.8137C47.0174 31.7443 47.1874 31.6483 47.3363 31.5253C47.4852 31.4035 47.5943 31.2633 47.6638 31.1058L49.3813 31.6305C49.2239 31.9712 48.9923 32.2775 48.6866 32.5481C48.3896 32.8194 48.0356 33.0331 47.6248 33.1906C47.2225 33.3388 46.7686 33.4135 46.2612 33.4135ZM39.3368 31.604C39.4327 31.4995 39.5121 31.3943 39.573 31.2898C39.6338 31.1846 39.6649 31.0886 39.6649 31.0013V30.3066C39.4552 30.2193 39.2276 30.1538 38.9828 30.1101C38.738 30.0572 38.5064 30.0314 38.2881 30.0314C37.8336 30.0314 37.4578 30.1319 37.1607 30.3324C36.8723 30.5249 36.728 30.783 36.728 31.1058C36.728 31.2812 36.7763 31.4472 36.8723 31.604C36.9682 31.7615 37.1085 31.8885 37.2917 31.9844C37.4756 32.0804 37.694 32.1287 37.9474 32.1287C38.2094 32.1287 38.4674 32.0804 38.7208 31.9844C38.9742 31.8792 39.18 31.7529 39.3368 31.604ZM35.0634 31.2501C35.0634 30.8048 35.1858 30.4158 35.4306 30.0836C35.684 29.7429 36.0333 29.4809 36.4793 29.297C36.9245 29.1137 37.436 29.0217 38.0129 29.0217C38.3013 29.0217 38.5944 29.0436 38.8915 29.0872C39.1886 29.1309 39.4459 29.201 39.6649 29.297V28.9298C39.6649 28.4931 39.5339 28.1564 39.2713 27.9202C39.0179 27.6846 38.6381 27.5669 38.1306 27.5669C37.7548 27.5669 37.3969 27.6324 37.0562 27.7634C36.7148 27.8944 36.3569 28.0869 35.9811 28.3403L35.4174 27.1864C35.8719 26.8894 36.335 26.6664 36.8068 26.5182C37.2878 26.3693 37.7899 26.2952 38.3146 26.2952C39.2931 26.2952 40.0533 26.54 40.5951 27.029C41.1463 27.5186 41.4215 28.2179 41.4215 29.1263V31.3162C41.4215 31.4995 41.4519 31.6305 41.5128 31.7092C41.5829 31.7879 41.6921 31.8356 41.841 31.8534V33.2825C41.6835 33.3083 41.5393 33.3302 41.4083 33.348C41.2859 33.3652 41.1807 33.3738 41.0933 33.3738C40.744 33.3738 40.4774 33.2951 40.2941 33.1383C40.1194 32.9808 40.0096 32.7883 39.966 32.5614L39.9269 32.2074C39.6299 32.5918 39.258 32.8889 38.8128 33.0986C38.3668 33.3083 37.9123 33.4135 37.4492 33.4135C36.9947 33.4135 36.5838 33.3216 36.2173 33.1383C35.8587 32.9458 35.5748 32.6877 35.3651 32.3649C35.164 32.0327 35.0634 31.6609 35.0634 31.2501ZM28.6048 25.5212V27.8679H31.017C31.2175 27.8679 31.4014 27.8196 31.5675 27.7237C31.7335 27.6277 31.8645 27.4921 31.9605 27.3174C32.065 27.1428 32.1179 26.933 32.1179 26.6882C32.1179 26.452 32.0696 26.247 31.9737 26.0723C31.8864 25.8976 31.764 25.762 31.6065 25.6654C31.4576 25.5695 31.2876 25.5212 31.0951 25.5212H28.6048ZM32.4719 30.5421C32.4719 30.3059 32.4236 30.0969 32.3276 29.9129C32.2317 29.7204 32.1001 29.5722 31.934 29.4677C31.7772 29.3539 31.5933 29.297 31.3835 29.297H28.6048V31.7482H31.2922C31.5106 31.7482 31.7071 31.696 31.8817 31.5908C32.065 31.4776 32.2099 31.3288 32.3144 31.1455C32.4196 30.9616 32.4719 30.7611 32.4719 30.5421ZM34.294 30.8829C34.294 31.4075 34.1583 31.8488 33.8877 32.2074C33.6165 32.5567 33.2493 32.8234 32.7861 33.0066C32.3316 33.1906 31.8341 33.2819 31.2922 33.2819H26.7953V23.9743H31.7772C32.2139 23.9743 32.5896 24.0927 32.9046 24.3283C33.2274 24.5559 33.4722 24.8529 33.6383 25.2201C33.813 25.5781 33.901 25.9539 33.901 26.3475C33.901 26.7934 33.7872 27.2169 33.5596 27.6191C33.3326 28.0207 33.0005 28.3185 32.5638 28.5103C33.0964 28.6678 33.5159 28.9516 33.8222 29.3625C34.1365 29.7733 34.294 30.2801 34.294 30.8829ZM18.0342 29.297H21.6261C21.591 28.9476 21.4905 28.646 21.3244 28.3926C21.1669 28.1306 20.9572 27.9294 20.6952 27.7892C20.4332 27.641 20.1401 27.5669 19.8166 27.5669C19.5023 27.5669 19.2139 27.641 18.9519 27.7892C18.6985 27.9294 18.4887 28.1306 18.3227 28.3926C18.1652 28.646 18.0693 28.9476 18.0342 29.297ZM19.8298 33.4135C19.2794 33.4135 18.7812 33.3216 18.3352 33.1383C17.89 32.9458 17.5095 32.6877 17.1953 32.3649C16.8804 32.0327 16.6356 31.6569 16.4609 31.2368C16.2948 30.8088 16.2121 30.3589 16.2121 29.8871C16.2121 29.2315 16.3557 28.6327 16.6442 28.0909C16.9412 27.549 17.3613 27.1163 17.9032 26.7934C18.4537 26.4613 19.1001 26.2952 19.843 26.2952C20.5946 26.2952 21.2371 26.4613 21.7703 26.7934C22.3029 27.1163 22.7098 27.549 22.989 28.0909C23.2775 28.6241 23.4217 29.201 23.4217 29.8216C23.4217 29.9262 23.4177 30.0353 23.4091 30.1491C23.3999 30.2537 23.3913 30.341 23.3827 30.4111H18.0732C18.1083 30.7611 18.2089 31.0668 18.3749 31.3288C18.5496 31.5908 18.7679 31.7919 19.0306 31.9322C19.3012 32.0632 19.5896 32.1287 19.8953 32.1287C20.2453 32.1287 20.5728 32.0453 20.8785 31.8792C21.1934 31.7046 21.4078 31.4776 21.5209 31.1978L23.0287 31.6172C22.8626 31.9672 22.6225 32.2775 22.3075 32.5481C22.0019 32.8187 21.6393 33.0331 21.2199 33.1906C20.7997 33.3388 20.3373 33.4135 19.8298 33.4135ZM15.1172 33.2819H13.3606V29.428C13.3606 28.8947 13.2554 28.4971 13.0457 28.2351C12.8445 27.9731 12.5647 27.8421 12.2067 27.8421C11.997 27.8421 11.774 27.903 11.5378 28.0254C11.3023 28.1478 11.0879 28.3185 10.8961 28.5368C10.7121 28.7465 10.5765 28.9913 10.4892 29.2705V33.2819H8.73261V23.7123H10.4892V27.6846C10.7426 27.2473 11.0879 26.9066 11.5253 26.6618C11.9619 26.4176 12.4383 26.2952 12.9537 26.2952C13.3996 26.2952 13.7622 26.3733 14.042 26.5308C14.3219 26.6796 14.5402 26.8847 14.6977 27.1467C14.8545 27.4008 14.9637 27.6893 15.0252 28.0121C15.0867 28.3271 15.1172 28.6546 15.1172 28.9953V33.2819ZM7.74747 25.5609H4.7722V33.2825H2.97593V25.5609H0V23.975H7.74747V25.5609Z" fill="black"/>
<path d="M67.3448 56.327C66.5039 56.327 65.6517 56.5407 64.8723 56.9906C62.5025 58.3588 61.688 61.3996 63.0562 63.7695C63.7185 64.9174 64.789 65.7384 66.0692 66.0812C67.3494 66.4245 68.6865 66.2485 69.8344 65.5856C72.2043 64.2174 73.0188 61.1766 71.6506 58.8074C70.7329 57.2169 69.061 56.327 67.3448 56.327ZM67.3653 68.6251C66.7282 68.6251 66.0871 68.541 65.4552 68.3717C63.5637 67.8649 61.9818 66.6515 61.0026 64.9551C58.9807 61.4532 60.1848 56.9595 63.6867 54.9376C67.1893 52.9158 71.683 54.1199 73.7042 57.6218C75.7261 61.1237 74.5219 65.6174 71.02 67.6393C69.89 68.2916 68.6362 68.6251 67.3653 68.6251Z" fill="black"/>
</svg>
