<svg width="336" height="177" viewBox="0 0 336 177" fill="none" xmlns="http://www.w3.org/2000/svg">
<path fill-rule="evenodd" clip-rule="evenodd" d="M132.744 58.7656C139.221 48.6207 150.086 41.4997 162.291 41.4997C175.186 41.4997 186.493 48.4108 192.739 58.7656H199.695C192.884 44.916 178.702 35.3838 162.291 35.3838C145.882 35.3838 131.699 44.916 124.889 58.7656H132.744ZM197.063 90.2189C191.913 103.64 178.976 113.143 163.854 113.143C147.924 113.143 134.273 104.181 129.686 90.2189H124.146C129.559 107.07 145.289 119.259 163.854 119.259C182.418 119.259 198.148 107.07 203.561 90.2189H197.063Z" fill="black"/>
<path d="M205.538 6.11592C201.083 6.11592 197.457 9.74213 197.457 14.1977C197.457 18.6549 201.083 22.2794 205.538 22.2794C209.996 22.2794 213.62 18.6549 213.62 14.1977C213.62 9.74213 209.996 6.11592 205.538 6.11592ZM205.538 28.3954C197.711 28.3954 191.341 22.0269 191.341 14.1977C191.341 6.37018 197.711 0 205.538 0C213.367 0 219.736 6.37018 219.736 14.1977C219.736 22.0269 213.367 28.3954 205.538 28.3954ZM239.068 115.532C236.533 116.994 235.553 120.621 236.93 123.45C237.599 124.829 238.701 125.812 240.032 126.219C241.22 126.583 242.483 126.434 243.584 125.8C246.119 124.337 247.101 120.709 245.724 117.88C245.053 116.503 243.952 115.518 242.621 115.11C241.433 114.747 240.171 114.895 239.068 115.532ZM241.34 132.535C240.304 132.535 239.263 132.38 238.241 132.067C235.312 131.17 232.83 129.004 231.43 126.126C228.656 120.421 230.712 113.291 236.012 110.233H236.014C238.601 108.74 241.585 108.397 244.413 109.264C247.341 110.162 249.824 112.327 251.223 115.206C253.998 120.911 251.942 128.038 246.64 131.096C244.986 132.05 243.172 132.535 241.34 132.535ZM110.339 125.376C106.486 125.376 103.349 128.513 103.349 132.366C103.349 136.221 106.486 139.356 110.339 139.356C114.194 139.356 117.328 136.221 117.328 132.366C117.328 128.513 114.194 125.376 110.339 125.376ZM110.339 145.472C103.112 145.472 97.2332 139.593 97.2332 132.366C97.2332 125.139 103.112 119.26 110.339 119.26C117.566 119.26 123.444 125.139 123.444 132.366C123.444 139.593 117.566 145.472 110.339 145.472ZM102.812 27.0848C100.042 27.0848 97.7878 29.1428 97.7878 31.6717C97.7878 34.2007 100.042 36.2587 102.812 36.2587C105.581 36.2587 107.835 34.2007 107.835 31.6717C107.835 29.1428 105.581 27.0848 102.812 27.0848ZM102.812 42.3746C96.6701 42.3746 91.6719 37.5744 91.6719 31.6717C91.6719 25.7708 96.6701 20.9689 102.812 20.9689C108.955 20.9689 113.951 25.7708 113.951 31.6717C113.951 37.5744 108.955 42.3746 102.812 42.3746Z" fill="black"/>
<path d="M186.445 48.8985L181.386 45.4617L197.112 22.3086L202.172 25.7454L186.445 48.8985ZM120.716 126.243L115.689 122.762L131.416 100.046L136.443 103.527L120.716 126.243ZM129.248 55.3745L106.532 39.6478L110.013 34.6189L132.73 50.3456L129.248 55.3745ZM232.059 119.926L198.203 100.316L201.269 95.0239L235.125 114.634L232.059 119.926ZM168.249 143.55L162.944 116.58L168.946 115.399L174.251 142.369L168.249 143.55ZM325.765 82.3262C326.487 82.3262 327.14 82.1897 327.727 81.9201C328.335 81.6266 328.854 81.2443 329.282 80.7699C329.733 80.2972 330.07 79.7443 330.296 79.113C330.543 78.4594 330.668 77.7836 330.668 77.0857C330.668 76.1164 330.465 75.2257 330.06 74.4134C329.676 73.5789 329.135 72.9151 328.437 72.4185C327.76 71.9237 326.961 71.6745 326.036 71.6745C325.383 71.6745 324.751 71.8332 324.142 72.1489C323.557 72.4407 323.026 72.8469 322.553 73.3656C322.103 73.8844 321.741 74.4697 321.472 75.1233V79.3501C321.606 79.8007 321.821 80.2068 322.113 80.5668C322.429 80.9286 322.789 81.2443 323.197 81.5139C323.601 81.7631 324.019 81.9644 324.446 82.1231C324.898 82.2579 325.337 82.3262 325.765 82.3262ZM327.018 86.1811C325.664 86.1811 324.458 85.8756 323.398 85.2681C322.34 84.6589 321.506 83.8245 320.897 82.7648V85.8415H316.941V61.1594H321.472V71.236C322.103 70.1763 322.925 69.3418 323.939 68.7326C324.977 68.1251 326.183 67.8214 327.557 67.8214C328.707 67.8214 329.755 68.0688 330.702 68.5637C331.649 69.0381 332.461 69.7019 333.137 70.5585C333.835 71.4169 334.366 72.3964 334.726 73.5004C335.11 74.6062 335.301 75.7888 335.301 77.0516C335.301 78.3126 335.086 79.4969 334.657 80.601C334.253 81.7068 333.678 82.6863 332.934 83.5429C332.19 84.3774 331.311 85.0309 330.296 85.5036C329.304 85.9541 328.21 86.1811 327.018 86.1811ZM295.871 79.2153V68.1251H300.402V78.2358C300.402 79.5873 300.649 80.6129 301.146 81.3126C301.641 81.9883 302.375 82.3262 303.342 82.3262C303.929 82.3262 304.504 82.2136 305.067 81.9883C305.653 81.7392 306.183 81.3791 306.656 80.9064C307.153 80.432 307.569 79.8348 307.907 79.1147V68.1251H312.439V80.7699C312.439 81.2443 312.516 81.5822 312.675 81.7853C312.856 81.9883 313.137 82.1129 313.52 82.1573V85.8432C313.069 85.9097 312.687 85.9558 312.371 85.978C312.078 86.0224 311.806 86.0463 311.559 86.0463C310.748 86.0463 310.083 85.8654 309.564 85.5036C309.069 85.1214 308.776 84.6026 308.685 83.949L308.584 82.5293C307.794 83.7238 306.781 84.6367 305.54 85.2681C304.301 85.8756 302.938 86.1811 301.45 86.1811C299.624 86.1811 298.238 85.5941 297.291 84.4234C296.344 83.2272 295.871 81.4917 295.871 79.2153ZM291.47 61.8351V85.8415H286.839V75.5977H275.952V85.8415H271.285V61.8351H275.952V71.5397H286.839V61.8351H291.47ZM257.051 79.3501V75.1233C256.824 74.4697 256.464 73.8844 255.968 73.3656C255.473 72.8469 254.92 72.4407 254.311 72.1489C253.703 71.8332 253.094 71.6745 252.487 71.6745C251.787 71.6745 251.156 71.8213 250.592 72.1148C250.029 72.4083 249.533 72.8025 249.104 73.2974C248.698 73.7939 248.384 74.369 248.157 75.0226C247.956 75.6762 247.854 76.3639 247.854 77.0857C247.854 77.8058 247.966 78.4935 248.191 79.1471C248.441 79.7785 248.789 80.3314 249.241 80.804C249.691 81.2767 250.21 81.6504 250.795 81.9201C251.405 82.1897 252.058 82.3262 252.756 82.3262C253.185 82.3262 253.613 82.2579 254.041 82.1231C254.492 81.9644 254.91 81.7631 255.292 81.5139C255.698 81.2443 256.048 80.9286 256.341 80.5668C256.655 80.1846 256.893 79.7785 257.051 79.3501ZM243.154 76.9833C243.154 75.27 243.492 73.7257 244.168 72.352C244.845 70.9544 245.78 69.8486 246.975 69.0381C248.169 68.2258 249.533 67.8214 251.065 67.8214C252.374 67.8214 253.545 68.1473 254.582 68.8009C255.642 69.4323 256.464 70.2428 257.051 71.236V61.1594H261.582V80.7699C261.582 81.2443 261.66 81.5822 261.817 81.7853C261.976 81.9883 262.246 82.1112 262.63 82.1573V85.8415C261.841 86.0002 261.198 86.0787 260.701 86.0787C259.891 86.0787 259.215 85.8756 258.674 85.4712C258.155 85.0651 257.862 84.5343 257.795 83.8808L257.727 82.7648C257.074 83.8705 256.183 84.7152 255.055 85.3005C253.951 85.8876 252.79 86.1811 251.574 86.1811C250.355 86.1811 249.229 85.9439 248.191 85.4712C247.178 84.9968 246.287 84.3432 245.521 83.5088C244.777 82.6743 244.192 81.7068 243.763 80.601C243.357 79.4747 243.154 78.2683 243.154 76.9833ZM240.296 85.8432H235.765V75.9014C235.765 74.4816 235.518 73.4441 235.021 72.7906C234.526 72.137 233.838 71.811 232.96 71.811C232.35 71.811 231.731 71.968 231.1 72.2837C230.49 72.5994 229.939 73.0397 229.443 73.6028C228.946 74.1438 228.586 74.7752 228.361 75.497V85.8432H223.83V68.1251H227.92V71.4049C228.371 70.6387 228.946 69.9954 229.646 69.4783C230.344 68.9374 231.144 68.5312 232.047 68.2599C232.97 67.9664 233.939 67.8214 234.953 67.8214C236.059 67.8214 236.96 68.0227 237.659 68.4289C238.379 68.8128 238.922 69.3418 239.282 70.0193C239.666 70.6728 239.924 71.4169 240.06 72.2496C240.217 73.0841 240.296 73.9288 240.296 74.7854V85.8432ZM202.759 79.2153V68.1251H207.291V78.2358C207.291 79.5873 207.539 80.6129 208.034 81.3126C208.53 81.9883 209.262 82.3262 210.231 82.3262C210.818 82.3262 211.394 82.2136 211.957 81.9883C212.542 81.7392 213.073 81.3791 213.545 80.9064C214.042 80.432 214.458 79.8348 214.796 79.1147V68.1251H219.327V80.7699C219.327 81.2443 219.407 81.5822 219.564 81.7853C219.745 81.9883 220.026 82.1129 220.409 82.1573V85.8432C219.958 85.9097 219.576 85.9558 219.26 85.978C218.967 86.0224 218.697 86.0463 218.448 86.0463C217.637 86.0463 216.972 85.8654 216.453 85.5036C215.957 85.1214 215.665 84.6026 215.574 83.949L215.474 82.5293C214.684 83.7238 213.67 84.6367 212.429 85.2681C211.19 85.8756 209.827 86.1811 208.339 86.1811C206.513 86.1811 205.126 85.5941 204.18 84.4234C203.233 83.2272 202.759 81.4917 202.759 79.2153ZM185.974 77.0174C185.974 78.055 186.177 78.9781 186.582 79.7904C186.988 80.5788 187.541 81.1982 188.239 81.6504C188.938 82.1009 189.727 82.3262 190.606 82.3262C191.462 82.3262 192.24 82.1009 192.94 81.6504C193.638 81.1761 194.191 80.5447 194.595 79.7563C195.024 78.944 195.239 78.0208 195.239 76.9833C195.239 75.9697 195.024 75.0567 194.595 74.2444C194.191 73.4339 193.638 72.8025 192.94 72.352C192.24 71.8998 191.462 71.6745 190.606 71.6745C189.727 71.6745 188.938 71.9117 188.239 72.3861C187.541 72.8366 186.988 73.468 186.582 74.2786C186.177 75.067 185.974 75.9816 185.974 77.0174ZM190.606 86.1811C189.164 86.1811 187.867 85.9439 186.718 85.4712C185.568 84.9746 184.587 84.2989 183.776 83.4422C182.988 82.5856 182.379 81.6044 181.95 80.5003C181.522 79.3962 181.309 78.2341 181.309 77.0174C181.309 75.7785 181.522 74.6062 181.95 73.5004C182.379 72.3964 182.988 71.4169 183.776 70.5602C184.587 69.7036 185.568 69.0381 186.718 68.5654C187.867 68.0688 189.164 67.8214 190.606 67.8214C192.049 67.8214 193.334 68.0688 194.46 68.5654C195.611 69.0381 196.59 69.7036 197.402 70.5602C198.213 71.4169 198.822 72.3964 199.228 73.5004C199.657 74.6062 199.87 75.7785 199.87 77.0174C199.87 78.2341 199.657 79.3962 199.228 80.5003C198.822 81.6044 198.213 82.5856 197.402 83.4422C196.612 84.2989 195.645 84.9746 194.495 85.4712C193.344 85.9439 192.049 86.1811 190.606 86.1811ZM180.128 72.0465C178.753 72.0465 177.526 72.3179 176.442 72.8588C175.362 73.3776 174.584 74.1318 174.109 75.1233V85.8415H169.579V68.1251H173.739V71.9117C174.369 70.695 175.169 69.736 176.138 69.0381C177.107 68.3384 178.133 67.9562 179.215 67.8879H179.79C179.927 67.8879 180.039 67.8999 180.128 67.922V72.0465ZM156.603 82.3262C157.099 82.3262 157.572 82.2477 158.023 82.089C158.473 81.932 158.891 81.717 159.273 81.4474C159.657 81.1761 159.995 80.8604 160.289 80.5003C160.581 80.1163 160.806 79.7341 160.964 79.3501V75.1233C160.693 74.4253 160.311 73.8161 159.814 73.2991C159.342 72.7803 158.801 72.3861 158.191 72.1148C157.606 71.8213 156.985 71.6762 156.331 71.6762C155.633 71.6762 155.002 71.8213 154.439 72.1148C153.876 72.4083 153.391 72.8247 152.985 73.3656C152.579 73.8844 152.263 74.4697 152.038 75.1233C151.835 75.7547 151.734 76.4202 151.734 77.1198C151.734 77.8399 151.857 78.5174 152.106 79.1471C152.354 79.7785 152.692 80.3314 153.12 80.804C153.57 81.2784 154.089 81.6504 154.674 81.9201C155.284 82.1897 155.927 82.3262 156.603 82.3262ZM155.081 85.9439C153.908 85.9439 152.826 85.7186 151.835 85.2681C150.866 84.7937 150.021 84.1402 149.299 83.3074C148.601 82.473 148.06 81.5139 147.676 80.432C147.294 79.3501 147.101 78.2 147.101 76.9833C147.101 75.6983 147.304 74.5038 147.71 73.3998C148.117 72.2957 148.68 71.3264 149.402 70.492C150.146 69.6353 151.012 68.9818 152.004 68.5312C153.019 68.0569 154.135 67.8214 155.352 67.8214C156.727 67.8214 157.932 68.1353 158.97 68.7667C160.005 69.3759 160.862 70.1984 161.54 71.236V68.1251H165.495V84.9968C165.495 86.7544 165.067 88.2544 164.21 89.495C163.376 90.7561 162.215 91.7151 160.727 92.3687C159.239 93.0444 157.55 93.3823 155.656 93.3823C153.739 93.3823 152.117 93.0547 150.787 92.4011C149.458 91.7714 148.318 90.8687 147.373 89.6964L149.84 87.2971C150.516 88.1298 151.362 88.7834 152.376 89.2578C153.413 89.7305 154.506 89.9677 155.656 89.9677C156.625 89.9677 157.504 89.7868 158.294 89.4267C159.104 89.0889 159.748 88.5479 160.22 87.8039C160.717 87.0821 160.964 86.1469 160.964 84.9968V82.7648C160.379 83.7801 159.545 84.5685 158.463 85.1316C157.403 85.6743 156.275 85.9439 155.081 85.9439ZM142.258 85.8415L137.086 78.2017L134.685 80.5686V85.8415H130.154V61.1594H134.685V76.1045L141.82 68.1592H146.62L140.028 75.6642L147.094 85.8415H142.258ZM119.319 86.1811C117.877 86.1811 116.58 85.9439 115.431 85.4712C114.281 84.9746 113.3 84.2989 112.489 83.4422C111.677 82.5634 111.046 81.5719 110.595 80.4662C110.167 79.3621 109.953 78.2017 109.953 76.9833C109.953 75.3161 110.326 73.7939 111.07 72.4185C111.836 71.021 112.918 69.9066 114.315 69.0722C115.713 68.2377 117.37 67.8214 119.284 67.8214C121.201 67.8214 122.847 68.2377 124.221 69.0722C125.597 69.9066 126.622 70.9988 127.298 72.352L122.87 73.7035C122.486 73.0499 121.979 72.5551 121.347 72.2172C120.716 71.8554 120.018 71.6745 119.252 71.6745C118.395 71.6745 117.605 71.8998 116.885 72.352C116.185 72.7803 115.633 73.3998 115.228 74.2103C114.822 75.0004 114.619 75.9236 114.619 76.9833C114.619 78.0208 114.822 78.944 115.228 79.7563C115.656 80.5447 116.22 81.1761 116.918 81.6504C117.617 82.1009 118.395 82.3262 119.252 82.3262C119.793 82.3262 120.3 82.2358 120.772 82.0549C121.269 81.8757 121.708 81.6283 122.091 81.3109C122.475 80.9969 122.757 80.6351 122.936 80.229L127.366 81.5822C126.96 82.461 126.363 83.2511 125.574 83.949C124.808 84.6487 123.895 85.1999 122.836 85.606C121.798 85.9882 120.627 86.1811 119.319 86.1811ZM101.459 81.5139C101.706 81.2443 101.911 80.973 102.068 80.7034C102.225 80.432 102.305 80.1846 102.305 79.9594V78.1676C101.764 77.9423 101.177 77.7734 100.546 77.6608C99.9144 77.5242 99.3172 77.4577 98.7541 77.4577C97.5817 77.4577 96.6125 77.7171 95.8463 78.2341C95.1022 78.7307 94.7302 79.3962 94.7302 80.229C94.7302 80.6812 94.8548 81.1095 95.1022 81.5139C95.3497 81.9201 95.7115 82.2477 96.1841 82.4951C96.6585 82.7426 97.2217 82.8671 97.8752 82.8671C98.551 82.8671 99.2165 82.7426 99.8701 82.4951C100.524 82.2238 101.054 81.8979 101.459 81.5139ZM90.4368 80.601C90.4368 79.4525 90.7525 78.4491 91.3839 77.5925C92.0375 76.7137 92.9385 76.0379 94.0886 75.5635C95.2371 75.0908 96.5561 74.8536 98.0442 74.8536C98.7882 74.8536 99.5441 74.91 100.31 75.0226C101.077 75.1352 101.74 75.3161 102.305 75.5635V74.6165C102.305 73.4902 101.967 72.6216 101.29 72.0124C100.636 71.4049 99.6568 71.1012 98.3479 71.1012C97.3787 71.1012 96.4555 71.2701 95.5766 71.608C94.6961 71.9459 93.7729 72.4424 92.8037 73.096L91.3498 70.12C92.5221 69.3538 93.7166 68.7787 94.9333 68.3964C96.1739 68.0125 97.4691 67.8214 98.8223 67.8214C101.346 67.8214 103.307 68.4528 104.704 69.7138C106.126 70.9766 106.836 72.7803 106.836 75.1233V80.7716C106.836 81.2443 106.914 81.5822 107.071 81.7853C107.252 81.9883 107.534 82.1112 107.918 82.1573V85.8432C107.512 85.9097 107.14 85.9661 106.802 86.0121C106.486 86.0565 106.215 86.0787 105.989 86.0787C105.088 86.0787 104.401 85.8756 103.928 85.4712C103.478 85.0651 103.194 84.5685 103.082 83.9832L102.981 83.0702C102.215 84.0617 101.256 84.8279 100.107 85.3688C98.9571 85.9097 97.7848 86.1811 96.5903 86.1811C95.4179 86.1811 94.3582 85.9439 93.4129 85.4712C92.488 84.9746 91.7559 84.3091 91.215 83.4763C90.6962 82.6197 90.4368 81.6607 90.4368 80.601ZM73.7784 65.8248V71.8776H80.0002C80.5172 71.8776 80.9916 71.753 81.4199 71.5056C81.8482 71.2582 82.1861 70.9083 82.4336 70.4578C82.7032 70.0073 82.8397 69.4664 82.8397 68.835C82.8397 68.2258 82.7151 67.6968 82.4677 67.2463C82.2424 66.7958 81.9267 66.446 81.5206 66.1968C81.1367 65.9494 80.6981 65.8248 80.2015 65.8248H73.7784ZM83.7526 78.7751C83.7526 78.1659 83.6281 77.6266 83.3806 77.1522C83.1332 76.6557 82.7936 76.2734 82.3653 76.0038C81.9609 75.7103 81.4865 75.5635 80.9455 75.5635H73.7784V81.8859H80.71C81.2732 81.8859 81.78 81.7511 82.2305 81.4798C82.7032 81.188 83.0769 80.804 83.3465 80.3314C83.6178 79.857 83.7526 79.3399 83.7526 78.7751ZM88.4522 79.6539C88.4522 81.0071 88.1024 82.1453 87.4044 83.0702C86.7048 83.9712 85.7577 84.6589 84.5632 85.1316C83.3909 85.606 82.1076 85.8415 80.71 85.8415H69.1113V61.8351H81.9609C83.0871 61.8351 84.0564 62.1406 84.8687 62.7481C85.7014 63.3351 86.3328 64.1013 86.7611 65.0484C87.2116 65.9716 87.4386 66.9408 87.4386 67.9562C87.4386 69.1063 87.1451 70.1984 86.558 71.236C85.9727 72.2718 85.1161 73.0397 83.9898 73.5346C85.3635 73.9407 86.4454 74.6728 87.2355 75.7325C88.0461 76.7922 88.4522 78.0993 88.4522 79.6539ZM46.5145 75.5635H55.7788C55.6883 74.6625 55.429 73.8844 55.0006 73.2308C54.5945 72.5551 54.0536 72.0363 53.3778 71.6745C52.702 71.2923 51.9461 71.1012 51.1116 71.1012C50.3011 71.1012 49.5571 71.2923 48.8813 71.6745C48.2277 72.0363 47.6868 72.5551 47.2585 73.2308C46.8523 73.8844 46.6049 74.6625 46.5145 75.5635ZM51.1458 86.1811C49.726 86.1811 48.441 85.9439 47.2909 85.4712C46.1424 84.9746 45.1612 84.3091 44.3507 83.4763C43.5384 82.6197 42.907 81.6504 42.4565 80.5668C42.0282 79.4628 41.8149 78.3024 41.8149 77.0857C41.8149 75.3946 42.1852 73.8503 42.9292 72.4527C43.6954 71.0551 44.779 69.9391 46.1766 69.1063C47.5963 68.2497 49.2635 67.8214 51.1799 67.8214C53.1184 67.8214 54.7754 68.2497 56.1508 69.1063C57.5245 69.9391 58.5739 71.0551 59.2941 72.4527C60.0381 73.8281 60.4101 75.3161 60.4101 76.9167C60.4101 77.1864 60.3999 77.4679 60.3777 77.7614C60.3538 78.0311 60.3316 78.2563 60.3094 78.4372H46.6151C46.7056 79.3399 46.965 80.1283 47.3933 80.804C47.8438 81.4798 48.4069 81.9986 49.0844 82.3603C49.7823 82.6982 50.5263 82.8671 51.3147 82.8671C52.2174 82.8671 53.0621 82.6521 53.8505 82.2238C54.6628 81.7733 55.2157 81.188 55.5075 80.4662L59.3965 81.5481C58.9681 82.4508 58.3487 83.2511 57.5364 83.949C56.748 84.647 55.8129 85.1999 54.731 85.606C53.6474 85.9882 52.4546 86.1811 51.1458 86.1811ZM38.9907 85.8415H34.4601V75.9014C34.4601 74.526 34.1888 73.5004 33.6478 72.8247C33.1291 72.1489 32.4072 71.811 31.484 71.811C30.9431 71.811 30.368 71.968 29.7588 72.2837C29.1513 72.5994 28.5984 73.0397 28.1035 73.6028C27.6292 74.1438 27.2793 74.7752 27.0541 75.4953V85.8415H22.5235V61.1594H27.0541V71.4049C27.7077 70.2769 28.5984 69.3981 29.7264 68.7667C30.8526 68.1371 32.0813 67.8214 33.4106 67.8214C34.5608 67.8214 35.4959 68.0227 36.2177 68.4289C36.9396 68.8128 37.5027 69.3418 37.9088 70.0176C38.3132 70.6728 38.5948 71.4169 38.7535 72.2496C38.9122 73.0619 38.9907 73.9066 38.9907 74.7854V85.8415ZM19.9825 65.9272H12.3086V85.8432H7.67562V65.9272H0V61.8368H19.9825V65.9272Z" fill="black"/>
<path d="M173.697 145.279C171.528 145.279 169.33 145.83 167.32 146.991C161.208 150.52 159.107 158.362 162.636 164.475C164.344 167.436 167.105 169.553 170.407 170.437C173.709 171.323 177.158 170.869 180.118 169.159C186.231 165.63 188.332 157.787 184.803 151.677C182.436 147.574 178.124 145.279 173.697 145.279ZM173.75 176.999C172.107 176.999 170.453 176.782 168.823 176.345C163.945 175.038 159.865 171.908 157.339 167.533C152.124 158.501 155.23 146.91 164.262 141.696C173.296 136.481 184.886 139.586 190.1 148.619C195.314 157.651 192.209 169.241 183.176 174.456C180.262 176.139 177.028 176.999 173.75 176.999Z" fill="black"/>
</svg>
